<?xml version="1.0" encoding="UTF-8" ?>
<!DOCTYPE svg PUBLIC "-//W3C//DTD SVG 1.1//EN" "http://www.w3.org/Graphics/SVG/1.1/DTD/svg11.dtd">
<svg width="114pt" height="114pt" viewBox="0 0 114 114" version="1.1" xmlns="http://www.w3.org/2000/svg">
<path fill="#2f3030" d=" M 0.00 0.00 L 114.00 0.00 L 114.00 114.00 L 0.00 114.00 L 0.00 0.00 Z" />
<path fill="#03aef1" d=" M 31.68 16.82 C 40.39 11.15 52.07 10.25 61.49 14.70 C 67.89 17.50 72.78 22.84 76.20 28.81 C 81.68 27.30 87.63 26.67 93.08 28.64 C 102.19 31.55 109.57 40.29 109.69 50.04 C 109.88 53.04 109.30 56.00 108.55 58.89 C 106.94 57.60 105.32 56.32 103.70 55.02 C 104.06 50.27 103.87 45.14 100.83 41.21 C 96.19 34.38 86.89 31.60 79.15 34.22 C 77.01 35.04 74.95 36.05 72.87 36.99 C 70.69 28.48 64.26 20.99 55.61 18.70 C 44.27 14.90 30.76 21.05 25.98 31.97 C 23.83 36.18 24.19 41.04 24.34 45.62 C 20.72 45.67 17.04 46.07 13.88 48.00 C 11.17 49.74 7.90 49.32 4.85 49.30 C 7.28 44.00 12.81 41.44 18.15 40.04 C 18.50 30.64 23.85 21.88 31.68 16.82 Z" />
<path fill="#f8faf9" d=" M 21.84 47.52 C 23.43 47.47 25.01 47.44 26.59 47.41 C 26.63 54.75 26.64 62.08 26.59 69.42 C 25.02 69.40 23.44 69.39 21.86 69.37 C 21.82 62.09 21.89 54.80 21.84 47.52 Z" />
<path fill="#f8faf9" d=" M 73.68 47.49 C 75.28 47.48 76.88 47.45 78.48 47.42 C 78.48 54.82 78.53 62.22 78.46 69.63 C 76.80 69.44 75.15 69.14 73.56 68.61 C 71.25 69.56 68.48 70.42 66.12 69.13 C 61.29 66.46 60.87 59.18 64.09 55.13 C 66.55 52.27 70.98 52.65 73.82 54.70 C 73.72 52.30 73.69 49.90 73.68 47.49 Z" />
<path fill="#f8faf9" d=" M 33.23 53.39 C 35.47 52.96 37.96 52.81 40.11 53.72 C 46.20 56.34 46.14 66.71 39.92 69.12 C 35.13 71.33 28.04 68.41 28.10 62.60 C 27.42 58.77 29.40 54.59 33.23 53.39 Z" />
<path fill="#f8faf9" d=" M 7.43 54.45 C 11.84 51.36 19.66 53.21 20.21 59.27 C 19.16 59.28 17.07 59.28 16.03 59.28 C 14.92 58.19 14.03 56.20 12.15 56.59 C 7.27 57.12 7.72 67.00 13.04 66.17 C 14.65 66.23 14.99 64.02 15.96 63.10 C 17.05 63.13 19.22 63.19 20.31 63.22 C 19.51 68.47 13.80 71.17 9.06 69.26 C 3.10 67.11 2.47 57.99 7.43 54.45 Z" />
<path fill="#f8faf9" d=" M 45.77 53.39 C 47.34 53.37 48.90 53.34 50.46 53.30 C 50.63 57.17 50.01 61.16 50.96 64.97 C 52.23 67.14 55.61 66.18 56.06 63.91 C 56.43 60.40 56.16 56.86 56.21 53.34 C 57.76 53.34 59.32 53.34 60.87 53.32 C 60.86 58.68 60.88 64.04 60.85 69.39 C 59.36 69.40 57.87 69.41 56.38 69.42 C 56.45 69.03 56.59 68.26 56.66 67.87 C 53.82 70.09 48.79 70.93 46.57 67.44 C 45.32 62.89 46.08 58.06 45.77 53.39 Z" />
<path fill="#2f3030" d=" M 34.22 57.12 C 35.33 56.73 36.50 56.56 37.64 56.32 C 39.93 58.51 40.66 62.22 38.96 64.96 C 37.76 66.97 35.33 65.92 33.54 65.64 C 32.62 62.90 31.76 59.34 34.22 57.12 Z" />
<path fill="#2f3030" d=" M 67.02 59.04 C 67.58 56.91 69.89 56.65 71.69 56.33 C 73.94 58.58 74.52 62.18 72.99 64.97 C 72.07 66.31 70.34 66.11 68.94 66.40 C 67.26 64.37 65.83 61.69 67.02 59.04 Z" />
<path fill="#03aef1" d=" M 79.37 72.77 C 80.73 72.77 82.09 72.77 83.46 72.77 C 83.50 74.06 83.55 75.35 83.59 76.64 C 82.13 76.67 80.66 76.70 79.20 76.73 C 79.25 75.41 79.31 74.09 79.37 72.77 Z" />
<path fill="#f8faf9" d=" M 4.68 72.85 C 6.28 72.85 7.88 72.84 9.48 72.83 C 9.50 75.28 9.50 77.74 9.40 80.19 C 11.49 78.59 14.36 77.66 16.85 78.90 C 21.85 81.56 21.90 88.88 18.98 93.08 C 16.73 95.93 12.78 95.46 9.78 94.26 C 8.09 94.54 6.37 94.69 4.66 94.83 C 4.66 87.50 4.65 80.18 4.68 72.85 Z" />
<path fill="#f8faf9" d=" M 21.72 83.67 C 22.97 77.40 32.76 76.45 36.24 81.08 C 37.35 85.54 36.44 90.34 36.75 94.93 C 35.01 94.74 33.27 94.54 31.54 94.25 C 29.18 94.91 26.62 95.85 24.23 94.69 C 21.00 93.68 20.39 88.72 23.05 86.78 C 25.02 85.21 27.74 85.46 30.07 84.98 C 29.26 84.45 28.44 83.92 27.62 83.40 C 29.10 83.33 30.40 83.95 31.68 84.60 C 33.23 80.80 26.91 80.64 26.17 83.88 C 25.06 83.83 22.83 83.72 21.72 83.67 Z" />
<path fill="#f8faf9" d=" M 38.17 81.14 C 42.18 76.74 51.05 77.26 52.74 83.66 C 51.25 83.71 49.77 83.75 48.28 83.79 C 47.31 81.45 43.48 80.44 42.32 83.15 C 45.52 85.54 51.33 84.27 52.63 88.88 C 53.30 97.37 37.75 97.51 37.41 89.21 C 39.48 89.19 41.69 89.05 43.02 90.96 C 44.52 92.77 46.91 91.33 48.71 90.94 C 46.65 87.85 42.58 88.07 39.51 86.67 C 39.13 87.01 38.76 87.35 38.38 87.68 C 38.25 85.50 38.23 83.32 38.17 81.14 Z" />
<path fill="#f8faf9" d=" M 57.09 93.92 C 50.91 90.00 53.41 78.69 60.99 78.39 C 66.49 77.49 70.40 82.96 69.87 88.02 C 65.87 88.09 61.86 88.10 57.86 88.29 C 58.86 89.43 59.39 91.46 61.18 91.49 C 63.07 91.99 64.52 90.57 65.92 89.57 C 66.90 89.60 68.87 89.66 69.85 89.69 C 67.94 94.72 61.61 96.92 57.09 93.92 Z" />
<path fill="#03aef1" d=" M 79.25 94.60 C 79.28 89.27 78.40 83.93 79.34 78.63 C 80.38 78.66 82.47 78.72 83.51 78.75 C 83.53 84.04 83.52 89.33 83.53 94.61 C 82.10 94.60 80.68 94.59 79.25 94.60 Z" />
<path fill="#03aef1" d=" M 89.21 79.27 C 94.65 76.31 102.34 80.54 101.61 87.00 C 102.01 92.87 95.21 97.04 90.04 94.63 C 83.72 92.58 83.28 82.03 89.21 79.27 Z" />
<path fill="#2f3030" d=" M 11.32 82.35 C 16.42 79.91 18.32 89.73 13.93 91.43 C 8.85 92.87 7.74 84.37 11.32 82.35 Z" />
<path fill="#2f3030" d=" M 58.76 83.08 C 59.84 82.60 60.93 82.12 62.01 81.62 C 62.57 81.95 63.68 82.60 64.23 82.93 C 64.48 83.58 64.72 84.24 64.96 84.90 C 62.77 85.20 59.73 83.74 58.40 86.23 C 58.57 85.18 58.73 84.14 58.76 83.08 Z" />
<path fill="#2f3030" d=" M 90.62 82.32 C 92.51 82.49 95.14 81.58 96.37 83.53 C 97.39 86.27 96.56 89.16 95.42 91.71 C 93.61 91.38 91.07 91.97 90.21 89.83 C 88.74 87.48 90.00 84.73 90.62 82.32 Z" />
<path fill="#2f3030" d=" M 26.58 91.32 C 24.78 87.81 30.28 87.81 32.54 87.41 C 32.42 90.42 29.46 93.38 26.58 91.32 Z" />
<path fill="#03aef1" d=" M 71.29 89.53 C 72.92 89.62 74.55 89.70 76.18 89.77 C 76.19 91.36 76.21 92.95 76.23 94.54 C 74.31 94.56 72.40 94.57 70.49 94.55 C 70.77 92.88 71.05 91.21 71.29 89.53 Z" />
</svg>
